# Blender v2.77 (sub 0) OBJ File: 'untitled.blend'
# www.blender.org
mtllib untitled.mtl
o Cube
v 2.000000 -1.000000 -1.000000
v 2.000000 -1.000000 1.000000
v -0.000000 -1.000000 1.000000
v 0.000000 -1.000000 -1.000000
v 2.000000 11.000000 -0.999999
v 1.999999 11.000000 1.000001
v -0.000000 11.000000 1.000000
v 0.000000 11.000000 -1.000000
vt 1.002108 1.003464
vt -0.001159 1.001003
vt 0.001302 0.000197
vt 1.002108 0.000197
vt 1.000325 0.000197
vt 1.000325 9.999804
vt -0.000481 9.999804
vt -0.000481 0.000197
vt 1.002447 0.000197
vt 1.002447 9.999804
vt 0.001641 9.997343
vt 0.001641 -0.002264
vt 1.000664 0.000197
vt 1.000664 9.999804
vt -0.000142 9.999804
vt -0.000142 0.000197
vt 0.000197 9.999803
vt 0.000197 0.000197
vt 1.001003 0.000197
vt 1.001003 9.999803
vn 0.000000 1.000000 0.000000
vn 1.000000 0.000000 0.000000
vn -0.000000 -0.000000 1.000000
vn -1.000000 -0.000000 -0.000000
vn 0.000000 0.000000 -1.000000
usemtl Material
s off
f 5/1/1 8/2/1 7/3/1 6/4/1
f 1/5/2 5/6/2 6/7/2 2/8/2
f 2/9/3 6/10/3 7/11/3 3/12/3
f 3/13/4 7/14/4 8/15/4 4/16/4
f 5/17/5 1/18/5 4/19/5 8/20/5
